<svg xmlns="http://www.w3.org/2000/svg" width="920" height="640" viewBox="0 0 920 640" role="img" aria-labelledby="title desc" data-geometry-fingerprint="eda914d5163b1cba9bb8f907543cf63b09b838672062fe388dfcc28adf0ce5db">
<title id="title">Parametric 12-fin heat sink</title><desc id="desc">Dimension-driven preview of the same idealized solid exported as STEP. Length 90, width 41.5, fin height 11.3, base 3, fin thickness 0.6 millimetres. A duct lid is assumed for flow analysis and is not shown or included in solid mass.</desc>
<rect width="920" height="640" fill="#f5fafb" rx="18"/><g fill="#163a4c" font-family="system-ui,sans-serif">
<text x="32" y="37" font-size="22" font-weight="700">Dimension-linked CAD · 12 fins</text><text x="32" y="63" font-size="13">Idealized reference geometry · millimetres · not a manufacturing drawing</text>
<polygon points="55.000,233.805 321.152,180.575 561.651,315.254 295.499,368.485" fill="#b7d8e3" stroke="#4c768a" stroke-width="0.55"/><polygon points="295.499,392.000 561.651,338.770 561.651,315.254 295.499,368.485" fill="#6694a6" stroke="#4c768a" stroke-width="0.55"/><polygon points="55.000,257.321 295.499,392.000 295.499,368.485 55.000,233.805" fill="#86b1c1" stroke="#4c768a" stroke-width="0.55"/><polygon points="317.304,181.344 557.803,316.024 557.803,227.449 317.304,92.770" fill="#88b3c4" stroke="#4c768a" stroke-width="0.55"/><polygon points="317.304,92.770 321.152,92.000 561.651,226.679 557.803,227.449" fill="#d0e8ed" stroke="#4c768a" stroke-width="0.55"/><polygon points="557.803,316.024 561.651,315.254 561.651,226.679 557.803,227.449" fill="#6694a6" stroke="#4c768a" stroke-width="0.55"/><polygon points="293.458,186.114 533.957,320.793 533.957,232.218 293.458,97.539" fill="#88b3c4" stroke="#4c768a" stroke-width="0.55"/><polygon points="293.458,97.539 297.306,96.769 537.805,231.448 533.957,232.218" fill="#d0e8ed" stroke="#4c768a" stroke-width="0.55"/><polygon points="533.957,320.793 537.805,320.023 537.805,231.448 533.957,232.218" fill="#6694a6" stroke="#4c768a" stroke-width="0.55"/><polygon points="269.612,190.883 510.111,325.562 510.111,236.987 269.612,102.308" fill="#88b3c4" stroke="#4c768a" stroke-width="0.55"/><polygon points="269.612,102.308 273.460,101.538 513.959,236.218 510.111,236.987" fill="#d0e8ed" stroke="#4c768a" stroke-width="0.55"/><polygon points="510.111,325.562 513.959,324.792 513.959,236.218 510.111,236.987" fill="#6694a6" stroke="#4c768a" stroke-width="0.55"/><polygon points="245.767,195.652 486.265,330.331 486.265,241.756 245.767,107.077" fill="#88b3c4" stroke="#4c768a" stroke-width="0.55"/><polygon points="245.767,107.077 249.615,106.307 490.113,240.987 486.265,241.756" fill="#d0e8ed" stroke="#4c768a" stroke-width="0.55"/><polygon points="486.265,330.331 490.113,329.562 490.113,240.987 486.265,241.756" fill="#6694a6" stroke="#4c768a" stroke-width="0.55"/><polygon points="221.921,200.421 462.420,335.100 462.420,246.526 221.921,111.846" fill="#88b3c4" stroke="#4c768a" stroke-width="0.55"/><polygon points="221.921,111.846 225.769,111.077 466.268,245.756 462.420,246.526" fill="#d0e8ed" stroke="#4c768a" stroke-width="0.55"/><polygon points="462.420,335.100 466.268,334.331 466.268,245.756 462.420,246.526" fill="#6694a6" stroke="#4c768a" stroke-width="0.55"/><polygon points="198.075,205.190 438.574,339.870 438.574,251.295 198.075,116.615" fill="#88b3c4" stroke="#4c768a" stroke-width="0.55"/><polygon points="198.075,116.615 201.923,115.846 442.422,250.525 438.574,251.295" fill="#d0e8ed" stroke="#4c768a" stroke-width="0.55"/><polygon points="438.574,339.870 442.422,339.100 442.422,250.525 438.574,251.295" fill="#6694a6" stroke="#4c768a" stroke-width="0.55"/><polygon points="174.229,209.959 414.728,344.639 414.728,256.064 174.229,121.385" fill="#88b3c4" stroke="#4c768a" stroke-width="0.55"/><polygon points="174.229,121.385 178.077,120.615 418.576,255.294 414.728,256.064" fill="#d0e8ed" stroke="#4c768a" stroke-width="0.55"/><polygon points="414.728,344.639 418.576,343.869 418.576,255.294 414.728,256.064" fill="#6694a6" stroke="#4c768a" stroke-width="0.55"/><polygon points="150.383,214.729 390.882,349.408 390.882,260.833 150.383,126.154" fill="#88b3c4" stroke="#4c768a" stroke-width="0.55"/><polygon points="150.383,126.154 154.231,125.384 394.730,260.063 390.882,260.833" fill="#d0e8ed" stroke="#4c768a" stroke-width="0.55"/><polygon points="390.882,349.408 394.730,348.638 394.730,260.063 390.882,260.833" fill="#6694a6" stroke="#4c768a" stroke-width="0.55"/><polygon points="126.537,219.498 367.036,354.177 367.036,265.602 126.537,130.923" fill="#88b3c4" stroke="#4c768a" stroke-width="0.55"/><polygon points="126.537,130.923 130.385,130.153 370.884,264.833 367.036,265.602" fill="#d0e8ed" stroke="#4c768a" stroke-width="0.55"/><polygon points="367.036,354.177 370.884,353.407 370.884,264.833 367.036,265.602" fill="#6694a6" stroke="#4c768a" stroke-width="0.55"/><polygon points="102.692,224.267 343.190,358.946 343.190,270.371 102.692,135.692" fill="#88b3c4" stroke="#4c768a" stroke-width="0.55"/><polygon points="102.692,135.692 106.540,134.922 347.038,269.602 343.190,270.371" fill="#d0e8ed" stroke="#4c768a" stroke-width="0.55"/><polygon points="343.190,358.946 347.038,358.177 347.038,269.602 343.190,270.371" fill="#6694a6" stroke="#4c768a" stroke-width="0.55"/><polygon points="78.846,229.036 319.345,363.715 319.345,275.141 78.846,140.461" fill="#88b3c4" stroke="#4c768a" stroke-width="0.55"/><polygon points="78.846,140.461 82.694,139.692 323.193,274.371 319.345,275.141" fill="#d0e8ed" stroke="#4c768a" stroke-width="0.55"/><polygon points="319.345,363.715 323.193,362.946 323.193,274.371 319.345,275.141" fill="#6694a6" stroke="#4c768a" stroke-width="0.55"/><polygon points="55.000,233.805 295.499,368.485 295.499,279.910 55.000,145.230" fill="#88b3c4" stroke="#4c768a" stroke-width="0.55"/><polygon points="55.000,145.230 58.848,144.461 299.347,279.140 295.499,279.910" fill="#d0e8ed" stroke="#4c768a" stroke-width="0.55"/><polygon points="295.499,368.485 299.347,367.715 299.347,279.140 295.499,279.910" fill="#6694a6" stroke="#4c768a" stroke-width="0.55"/>
<text x="700" y="130" font-size="16">L 90 mm</text><text x="700" y="160" font-size="16">W 41.5 mm</text><text x="700" y="190" font-size="16">Fin H 11.3 mm</text><text x="700" y="220" font-size="16">Base 3 mm</text><text x="700" y="250" font-size="16">Fin t 0.6 mm</text><text x="700" y="280" font-size="16">Gap 3.1182 mm</text>
<text x="32" y="418" font-size="15" font-weight="600">End section · 11 open channels · flow along L</text><g fill="#96becd" stroke="#335b6e" stroke-width="0.6"><rect class="fin-section" x="323.6014" y="446.0000" width="3.9441" height="74.2797"/><rect class="fin-section" x="348.0426" y="446.0000" width="3.9441" height="74.2797"/><rect class="fin-section" x="372.4838" y="446.0000" width="3.9441" height="74.2797"/><rect class="fin-section" x="396.9250" y="446.0000" width="3.9441" height="74.2797"/><rect class="fin-section" x="421.3662" y="446.0000" width="3.9441" height="74.2797"/><rect class="fin-section" x="445.8074" y="446.0000" width="3.9441" height="74.2797"/><rect class="fin-section" x="470.2486" y="446.0000" width="3.9441" height="74.2797"/><rect class="fin-section" x="494.6898" y="446.0000" width="3.9441" height="74.2797"/><rect class="fin-section" x="519.1310" y="446.0000" width="3.9441" height="74.2797"/><rect class="fin-section" x="543.5722" y="446.0000" width="3.9441" height="74.2797"/><rect class="fin-section" x="568.0134" y="446.0000" width="3.9441" height="74.2797"/><rect class="fin-section" x="592.4545" y="446.0000" width="3.9441" height="74.2797"/><rect x="323.6014" y="520.2797" width="272.7972" height="19.7203"/></g>
<text x="32" y="578" font-size="13">Gap = (W − N × t) / (N − 1) · heated surfaces: channel sides + exposed base</text><text x="32" y="603" font-size="12">Reference dimensions: NASA/TM-20230011420 Table 2. Uniform fins and flat base are assumptions.</text><text x="32" y="624" font-size="11" fill="#527181">Geometry ID: eda914d5163b1cba · preview is parameter-derived, not a BRep-validation image</text>
</g></svg>